Coordinates
version=1
nRows=27
nColumns=12
inDegrees=yes

Units are S.I. units (second, meters, Newtons, ...)
Angles are in degrees

endheader
time	SC_y	SC_z	SC_x	AC_y	AC_z	AC_x	GH_y	GH_z	GH_yy	EL_x	PS_y
       0.0              -33.24          37.81          54.06          35.36          -12.4         -18.83          113.1          24.51          46.46          39.58          158.8
   0.01961              -33.24          37.81          54.05          35.36          -12.4         -18.82          113.1          24.52          46.43          39.58          158.8
   0.03922              -33.24           37.8          54.05          35.36         -12.39         -18.82          113.1          24.53           46.4          39.57          158.8
   0.05884              -33.24           37.8          54.04          35.36         -12.39         -18.81          113.1          24.54          46.37          39.57          158.8
   0.07845              -33.24           37.8          54.03          35.36         -12.39          -18.8          113.1          24.55          46.33          39.57          158.7
   0.09806              -33.24           37.8          54.02          35.35         -12.38          -18.8          113.0          24.56          46.29          39.57          158.7
    0.1177              -33.24          37.79          54.01          35.35         -12.38         -18.79          113.0          24.57          46.25          39.57          158.7
    0.1373              -33.24          37.79          54.01          35.35         -12.37         -18.78          113.0          24.58          46.21          39.56          158.7
    0.1569              -33.24          37.79           54.0          35.35         -12.37         -18.77          113.0          24.59          46.17          39.56          158.7
    0.1765              -33.24          37.78          53.99          35.35         -12.36         -18.76          113.0           24.6          46.12          39.56          158.7
    0.1961              -33.24          37.78          53.97          35.35         -12.36         -18.75          113.0          24.62          46.07          39.55          158.6
    0.2157              -33.24          37.78          53.96          35.35         -12.35         -18.74          113.0          24.63          46.01          39.55          158.6
    0.2353              -33.24          37.77          53.95          35.35         -12.34         -18.73          112.9          24.65          45.95          39.55          158.6
     0.255              -33.24          37.77          53.93          35.34         -12.34         -18.72          112.9          24.66          45.88          39.54          158.6
    0.2746              -33.24          37.76          53.92          35.34         -12.33         -18.71          112.9          24.68          45.81          39.54          158.5
    0.2942              -33.24          37.76           53.9          35.34         -12.32         -18.69          112.9           24.7          45.74          39.53          158.5
    0.3138              -33.24          37.75          53.88          35.34         -12.31         -18.68          112.8          24.72          45.65          39.53          158.5
    0.3334              -33.24          37.74          53.86          35.34          -12.3         -18.66          112.8          24.74          45.56          39.52          158.4
     0.353              -33.24          37.74          53.84          35.33         -12.29         -18.64          112.8          24.77          45.46          39.52          158.4
    0.3726              -33.24          37.73          53.82          35.33         -12.28         -18.62          112.7           24.8          45.35          39.51          158.4
    0.3922              -33.24          37.72          53.79          35.33         -12.26          -18.6          112.7          24.83          45.24           39.5          158.3
    0.4119              -33.25          37.71          53.77          35.32         -12.25         -18.57          112.7          24.86           45.1           39.5          158.3
    0.4315              -33.25           37.7          53.73          35.32         -12.23         -18.55          112.6           24.9          44.96          39.49          158.2
    0.4511              -33.25          37.69           53.7          35.32         -12.21         -18.51          112.6          24.94           44.8          39.48          158.2
    0.4707              -33.25          37.68          53.66          35.31         -12.19         -18.48          112.5          24.99          44.62          39.47          158.1
    0.4903              -33.25          37.66          53.62          35.31         -12.17         -18.44          112.5          25.04          44.42          39.45          158.0
    0.5099              -33.25          37.65          53.57           35.3         -12.15          -18.4          112.4           25.1           44.2          39.44          157.9
